<?xml version="1.0" standalone="no"?>
<!DOCTYPE svg PUBLIC "-//W3C//DTD SVG 1.1//EN" "http://www.w3.org/Graphics/SVG/1.1/DTD/svg11.dtd" >
<svg xmlns="http://www.w3.org/2000/svg" xmlns:xlink="http://www.w3.org/1999/xlink" version="1.1">
<metadata>
Created by FontForge 20170731 at Tue Jan 23 01:13:10 2018
 By Aleksey,,,
Typeface by Darrell Flood. (c) 2017. All Rights Reserved
</metadata>
<defs>
<font id="Circuitboard" horiz-adv-x="1100" >
  <font-face 
    font-family="Circuitboard"
    font-weight="400"
    font-stretch="normal"
    units-per-em="2048"
    panose-1="2 0 5 0 0 0 0 0 0 0"
    ascent="1638"
    descent="-410"
    x-height="1300"
    cap-height="1500"
    bbox="-50 -350 1950 1650"
    underline-thickness="150"
    underline-position="-442"
    unicode-range="U+001D-20AC"
  />
<missing-glyph horiz-adv-x="1500" 
 />
    <glyph glyph-name=".notdef" horiz-adv-x="1500" 
 />
    <glyph glyph-name=".null" horiz-adv-x="0" 
 />
    <glyph glyph-name=".null" horiz-adv-x="0" 
 />
    <glyph glyph-name="nonmarkingreturn" horiz-adv-x="508" 
 />
    <glyph glyph-name="space" unicode=" " horiz-adv-x="508" 
 />
    <glyph glyph-name="space" unicode="&#xa0;" horiz-adv-x="508" 
 />
    <glyph glyph-name="exclam" unicode="!" horiz-adv-x="250" 
d="M50 -50q-41 0 -70.5 29.5t-29.5 70.5t29.5 70.5t70.5 29.5t70.5 -29.5t29.5 -70.5t-29.5 -70.5t-70.5 -29.5zM100 1413v-1163h-100v1163q-11 7 -20 17q-30 29 -30 70t29.5 70.5t70.5 29.5t70.5 -29.5t29.5 -70.5t-29 -70q-10 -10 -21 -17z" />
    <glyph glyph-name="quotedbl" unicode="&#x22;" horiz-adv-x="400" 
d="M100 1100h-100v400h100v-400zM300 1100h-100v400h100v-400z" />
    <glyph glyph-name="numbersign" unicode="#" horiz-adv-x="1350" 
d="M350 1000v-600h600v600h-600zM187 1000q-7 -11 -16 -20q-30 -30 -71 -30t-70.5 29.5t-29.5 70.5t29.5 70.5t70.5 29.5t71 -29q9 -10 16 -21h63v163q-11 7 -20 17q-30 29 -30 70t29.5 70.5t70.5 29.5t70.5 -29.5t29.5 -70.5t-29 -70q-10 -10 -21 -17v-163h600v163
q-11 7 -20 17q-30 29 -30 70t29.5 70.5t70.5 29.5t70.5 -29.5t29.5 -70.5t-29 -70q-10 -10 -21 -17v-163h63q7 11 17 21q29 29 70 29t70.5 -29.5t29.5 -70.5t-29.5 -70.5t-70.5 -29.5t-70 30q-10 9 -17 20h-63v-600h63q7 11 17 21q29 29 70 29t70.5 -29.5t29.5 -70.5
t-29.5 -70.5t-70.5 -29.5t-70 30q-10 9 -17 20h-63v-163q11 -7 21 -16q29 -30 29 -71t-29.5 -70.5t-70.5 -29.5t-70.5 29.5t-29.5 70.5t30 71q9 9 20 16v163h-600v-163q11 -7 21 -16q29 -30 29 -71t-29.5 -70.5t-70.5 -29.5t-70.5 29.5t-29.5 70.5t30 71q9 9 20 16v163h-63
q-7 -11 -16 -20q-30 -30 -71 -30t-70.5 29.5t-29.5 70.5t29.5 70.5t70.5 29.5t71 -29q9 -10 16 -21h63v600h-63z" />
    <glyph glyph-name="dollar" unicode="$" 
d="M550 600v-500h350v500h-350zM450 1200h-350v-500h350v500zM1000 1037q11 -7 21 -16q29 -30 29 -71t-29.5 -70.5t-70.5 -29.5t-70.5 29.5t-29.5 70.5t30 71q9 9 20 16v163h-350v-500h450v-700h-450v-63q11 -7 21 -16q29 -30 29 -71t-29.5 -70.5t-70.5 -29.5t-70.5 29.5
t-29.5 70.5t30 71q9 9 20 16v63h-450v263q-11 7 -20 17q-30 29 -30 70t29.5 70.5t70.5 29.5t70.5 -29.5t29.5 -70.5t-29 -70q-10 -10 -21 -17v-163h350v500h-450v700h450v63q-11 7 -20 17q-30 29 -30 70t29.5 70.5t70.5 29.5t70.5 -29.5t29.5 -70.5t-29 -70q-10 -10 -21 -17
v-63h450v-263z" />
    <glyph glyph-name="percent" unicode="%" horiz-adv-x="1200" 
d="M146 27q4 -13 4 -27q0 -41 -29.5 -70.5t-70.5 -29.5t-70.5 29.5t-29.5 70.5t29.5 70.5t70.5 29.5q12 0 23 -3l881 1176q-4 13 -4 27q0 41 29.5 70.5t70.5 29.5t70.5 -29.5t29.5 -70.5t-29.5 -70.5t-70.5 -29.5q-12 0 -23 3zM900 100q-41 0 -70.5 29.5t-29.5 70.5
t29.5 70.5t70.5 29.5t70.5 -29.5t29.5 -70.5t-29.5 -70.5t-70.5 -29.5zM200 1000q-41 0 -70.5 29.5t-29.5 70.5t29.5 70.5t70.5 29.5t70.5 -29.5t29.5 -70.5t-29.5 -70.5t-70.5 -29.5z" />
    <glyph glyph-name="ampersand" unicode="&#x26;" 
d="M263 100q7 11 17 21q29 29 70 29t70.5 -29.5t29.5 -70.5t-29.5 -70.5t-70.5 -29.5t-70 30q-10 9 -17 20h-263v300l350 350l-350 350v300h1000v-300l-350 -350l250 -250v163q-11 7 -20 17q-30 29 -30 70t29.5 70.5t70.5 29.5t70.5 -29.5t29.5 -70.5t-29 -70
q-10 -10 -21 -17v-563h-263q-7 -11 -16 -20q-30 -30 -71 -30t-70.5 29.5t-29.5 70.5t29.5 70.5t70.5 29.5t71 -29q9 -10 16 -21h163v150l-350 350v100l350 350v150h-800v-150l350 -350v-100l-350 -350v-150h163z" />
    <glyph glyph-name="quotesingle" unicode="'" horiz-adv-x="200" 
d="M100 1100h-100v400h100v-400z" />
    <glyph glyph-name="parenleft" unicode="(" horiz-adv-x="600" 
d="M363 0q7 11 17 21q29 29 70 29t70.5 -29.5t29.5 -70.5t-29.5 -70.5t-70.5 -29.5t-70 30q-10 9 -17 20h-363v1700h363q7 11 17 21q29 29 70 29t70.5 -29.5t29.5 -70.5t-29.5 -70.5t-70.5 -29.5t-70 30q-10 9 -17 20h-263v-1500h263z" />
    <glyph glyph-name="parenright" unicode=")" horiz-adv-x="600" 
d="M137 -100q-7 -11 -16 -20q-30 -30 -71 -30t-70.5 29.5t-29.5 70.5t29.5 70.5t70.5 29.5t71 -29q9 -10 16 -21h263v1500h-263q-7 -11 -16 -20q-30 -30 -71 -30t-70.5 29.5t-29.5 70.5t29.5 70.5t70.5 29.5t71 -29q9 -10 16 -21h363v-1700h-363z" />
    <glyph glyph-name="asterisk" unicode="*" horiz-adv-x="800" 
d="M300 829l-161 -163l-71 70l162 164h-230v100h230l-162 164l71 70l161 -163v229h100v-229l161 163l71 -70l-162 -164h230v-100h-230l162 -164l-71 -70l-161 163v-229h-100v229z" />
    <glyph glyph-name="plus" unicode="+" horiz-adv-x="800" 
d="M400 700h300v-100h-300v-300h-100v300h-300v100h300v300h100v-300z" />
    <glyph glyph-name="comma" unicode="," horiz-adv-x="200" 
d="M100 -300h-100v400h100v-400z" />
    <glyph glyph-name="hyphen" unicode="-" horiz-adv-x="1400" 
d="M187 600q-7 -11 -16 -20q-30 -30 -71 -30t-70.5 29.5t-29.5 70.5t29.5 70.5t70.5 29.5t71 -29q9 -10 16 -21h976q7 11 17 21q29 29 70 29t70.5 -29.5t29.5 -70.5t-29.5 -70.5t-70.5 -29.5t-70 30q-10 9 -17 20h-976z" />
    <glyph glyph-name="hyphen" unicode="&#xad;" horiz-adv-x="1400" 
d="M187 600q-7 -11 -16 -20q-30 -30 -71 -30t-70.5 29.5t-29.5 70.5t29.5 70.5t70.5 29.5t71 -29q9 -10 16 -21h976q7 11 17 21q29 29 70 29t70.5 -29.5t29.5 -70.5t-29.5 -70.5t-70.5 -29.5t-70 30q-10 9 -17 20h-976z" />
    <glyph glyph-name="period" unicode="." horiz-adv-x="200" 
d="M50 -50q-41 0 -70.5 29.5t-29.5 70.5t29.5 70.5t70.5 29.5t70.5 -29.5t29.5 -70.5t-29.5 -70.5t-70.5 -29.5z" />
    <glyph glyph-name="slash" unicode="/" horiz-adv-x="1200" 
d="M146 27q4 -13 4 -27q0 -41 -29.5 -70.5t-70.5 -29.5t-70.5 29.5t-29.5 70.5t29.5 70.5t70.5 29.5q12 0 23 -3l881 1176q-4 13 -4 27q0 41 29.5 70.5t70.5 29.5t70.5 -29.5t29.5 -70.5t-29.5 -70.5t-70.5 -29.5q-12 0 -23 3z" />
    <glyph glyph-name="zero" unicode="0" 
d="M0 963q-11 7 -20 17q-30 29 -30 70t29.5 70.5t70.5 29.5t70.5 -29.5t29.5 -70.5t-29 -70q-10 -10 -21 -17v-863h800v1100h-513q-7 -11 -16 -20q-30 -30 -71 -30t-70.5 29.5t-29.5 70.5t29.5 70.5t70.5 29.5t71 -29q9 -10 16 -21h613v-1300h-1000v963z" />
    <glyph glyph-name="one" unicode="1" horiz-adv-x="550" 
d="M450 -63q11 -7 21 -16q29 -30 29 -71t-29.5 -70.5t-70.5 -29.5t-70.5 29.5t-29.5 70.5t30 71q9 9 20 16v1263h-213q-7 -11 -16 -20q-30 -30 -71 -30t-70.5 29.5t-29.5 70.5t29.5 70.5t70.5 29.5t71 -29q9 -10 16 -21h314l-1 -100v-1263z" />
    <glyph glyph-name="two" unicode="2" 
d="M100 1037q11 -7 21 -16q29 -30 29 -71t-29.5 -70.5t-70.5 -29.5t-70.5 29.5t-29.5 70.5t30 71q9 9 20 16v263h1000v-700h-900v-500h800v163q-11 7 -20 17q-30 29 -30 70t29.5 70.5t70.5 29.5t70.5 -29.5t29.5 -70.5t-29 -70q-10 -10 -21 -17v-263h-1000v700h900v500h-800
v-163z" />
    <glyph glyph-name="three" unicode="3" 
d="M137 600q-7 -11 -16 -20q-30 -30 -71 -30t-70.5 29.5t-29.5 70.5t29.5 70.5t70.5 29.5t71 -29q9 -10 16 -21h763v500h-763q-7 -11 -16 -20q-30 -30 -71 -30t-70.5 29.5t-29.5 70.5t29.5 70.5t70.5 29.5t71 -29q9 -10 16 -21h863v-1300h-863q-7 -11 -16 -20
q-30 -30 -71 -30t-70.5 29.5t-29.5 70.5t29.5 70.5t70.5 29.5t71 -29q9 -10 16 -21h763v500h-763z" />
    <glyph glyph-name="four" unicode="4" 
d="M0 1163q-11 7 -20 17q-30 29 -30 70t29.5 70.5t70.5 29.5t70.5 -29.5t29.5 -70.5t-29 -70q-10 -10 -21 -17v-463h800v463q-11 7 -20 17q-30 29 -30 70t29.5 70.5t70.5 29.5t70.5 -29.5t29.5 -70.5t-29 -70q-10 -10 -21 -17v-1226q11 -7 21 -16q29 -30 29 -71t-29.5 -70.5
t-70.5 -29.5t-70.5 29.5t-29.5 70.5t30 71q9 9 20 16v663h-900v563z" />
    <glyph glyph-name="five" unicode="5" 
d="M0 263q-11 7 -20 17q-30 29 -30 70t29.5 70.5t70.5 29.5t70.5 -29.5t29.5 -70.5t-29 -70q-10 -10 -21 -17v-163h800v500h-900v700h863q7 11 17 21q29 29 70 29t70.5 -29.5t29.5 -70.5t-29.5 -70.5t-70.5 -29.5t-70 30q-10 9 -17 20h-763v-500h900v-700h-1000v263z" />
    <glyph glyph-name="six" unicode="6" 
d="M100 100h800v500h-800v-500zM663 1200h-563v-500h900v-700h-1000v1300h663q7 11 17 21q29 29 70 29t70.5 -29.5t29.5 -70.5t-29.5 -70.5t-70.5 -29.5t-70 30q-10 9 -17 20z" />
    <glyph glyph-name="seven" unicode="7" 
d="M1000 -63q11 -7 21 -16q29 -30 29 -71t-29.5 -70.5t-70.5 -29.5t-70.5 29.5t-29.5 70.5t30 71q9 9 20 16v1263h-800v-163q11 -7 21 -16q29 -30 29 -71t-29.5 -70.5t-70.5 -29.5t-70.5 29.5t-29.5 70.5t30 71q9 9 20 16v263h1000v-1363z" />
    <glyph glyph-name="eight" unicode="8" 
d="M263 100q7 11 17 21q29 29 70 29t70.5 -29.5t29.5 -70.5t-29.5 -70.5t-70.5 -29.5t-70 30q-10 9 -17 20h-263v300l350 350l-350 350v300h1000v-300l-350 -350l350 -350v-300h-263q-7 -11 -16 -20q-30 -30 -71 -30t-70.5 29.5t-29.5 70.5t29.5 70.5t70.5 29.5t71 -29
q9 -10 16 -21h163v150l-350 350v100l350 350v150h-800v-150l350 -350v-100l-350 -350v-150h163z" />
    <glyph glyph-name="nine" unicode="9" 
d="M900 1200h-800v-500h800v500zM337 100h563v500h-900v700h1000v-1300h-663q-7 -11 -16 -20q-30 -30 -71 -30t-70.5 29.5t-29.5 70.5t29.5 70.5t70.5 29.5t71 -29q9 -10 16 -21z" />
    <glyph glyph-name="colon" unicode=":" horiz-adv-x="500" 
d="M50 -50q-41 0 -70.5 29.5t-29.5 70.5t29.5 70.5t70.5 29.5t70.5 -29.5t29.5 -70.5t-29.5 -70.5t-70.5 -29.5zM50 450q-41 0 -70.5 29.5t-29.5 70.5t29.5 70.5t70.5 29.5t70.5 -29.5t29.5 -70.5t-29.5 -70.5t-70.5 -29.5z" />
    <glyph glyph-name="semicolon" unicode=";" horiz-adv-x="400" 
d="M100 -300h-100v400h100v-400zM50 450q-41 0 -70.5 29.5t-29.5 70.5t29.5 70.5t70.5 29.5t70.5 -29.5t29.5 -70.5t-29.5 -70.5t-70.5 -29.5z" />
    <glyph glyph-name="semicolon" unicode="&#x37e;" horiz-adv-x="400" 
d="M100 -300h-100v400h100v-400zM50 450q-41 0 -70.5 29.5t-29.5 70.5t29.5 70.5t70.5 29.5t70.5 -29.5t29.5 -70.5t-29.5 -70.5t-70.5 -29.5z" />
    <glyph glyph-name="less" unicode="&#x3c;" horiz-adv-x="450" 
d="M350 850l-200 -200l200 -200h-150l-200 200l200 200h150z" />
    <glyph glyph-name="equal" unicode="=" horiz-adv-x="800" 
d="M700 400h-700v100h700v-100zM700 800h-700v100h700v-100z" />
    <glyph glyph-name="greater" unicode="&#x3e;" horiz-adv-x="450" 
d="M150 850l200 -200l-200 -200h-150l200 200l-200 200h150z" />
    <glyph glyph-name="question" unicode="?" 
d="M100 1037q11 -7 21 -16q29 -30 29 -71t-29.5 -70.5t-70.5 -29.5t-70.5 29.5t-29.5 70.5t30 71q9 9 20 16v263h1000v-700h-450v-463q11 -7 21 -16q29 -30 29 -71t-29.5 -70.5t-70.5 -29.5t-70.5 29.5t-29.5 70.5t30 71q9 9 20 16v563h450v500h-800v-163z" />
    <glyph glyph-name="at" unicode="@" 
d="M863 100q7 11 17 21q29 29 70 29t70.5 -29.5t29.5 -70.5t-29.5 -70.5t-70.5 -29.5t-70 30q-10 9 -17 20h-863v1300h1000v-1000h-700v700h400v-263q11 -7 21 -16q29 -30 29 -71t-29.5 -70.5t-70.5 -29.5t-70.5 29.5t-29.5 70.5t30 71q9 9 20 16v163h-200v-500h500v800
h-800v-1100h763z" />
    <glyph glyph-name="A" unicode="A" 
d="M100 137q11 -7 21 -16q29 -30 29 -71t-29.5 -70.5t-70.5 -29.5t-70.5 29.5t-29.5 70.5t30 71q9 9 20 16v763l500 500l500 -500v-963q11 -7 21 -16q29 -30 29 -71t-29.5 -70.5t-70.5 -29.5t-70.5 29.5t-29.5 70.5t30 71q9 9 20 16v909l-400 404l-400 -404v-709z" />
    <glyph glyph-name="B" unicode="B" 
d="M100 137q11 -7 21 -16q29 -30 29 -71t-29.5 -70.5t-70.5 -29.5t-70.5 29.5t-29.5 70.5t30 71q9 9 20 16v1163h1000v-300l-350 -350l350 -350v-300h-613q-7 -11 -16 -20q-30 -30 -71 -30t-70.5 29.5t-29.5 70.5t29.5 70.5t70.5 29.5t71 -29q9 -10 16 -21h513v150l-400 400
l400 400v150h-800v-1063z" />
    <glyph glyph-name="C" unicode="C" 
d="M1000 887q11 -7 21 -16q29 -30 29 -71t-29.5 -70.5t-70.5 -29.5t-70.5 29.5t-29.5 70.5t30 71q9 9 20 16v313h-800v-1100h763q7 11 17 21q29 29 70 29t70.5 -29.5t29.5 -70.5t-29.5 -70.5t-70.5 -29.5t-70 30q-10 9 -17 20h-863v1300h1000v-413z" />
    <glyph glyph-name="D" unicode="D" 
d="M0 1313q-11 7 -20 17q-30 29 -30 70t29.5 70.5t70.5 29.5t70.5 -29.5t29.5 -70.5t-29 -70q-10 -10 -21 -17v-1213h800v750l-350 350h-163q-7 -11 -16 -20q-30 -30 -71 -30t-70.5 29.5t-29.5 70.5t29.5 70.5t70.5 29.5t71 -29q9 -10 16 -21h213l400 -400v-900h-1000v1313z
" />
    <glyph glyph-name="E" unicode="E" 
d="M613 700q7 11 17 21q29 29 70 29t70.5 -29.5t29.5 -70.5t-29.5 -70.5t-70.5 -29.5t-70 30q-10 9 -17 20h-513v-500h713q7 11 17 21q29 29 70 29t70.5 -29.5t29.5 -70.5t-29.5 -70.5t-70.5 -29.5t-70 30q-10 9 -17 20h-813v1300h863q7 11 17 21q29 29 70 29t70.5 -29.5
t29.5 -70.5t-29.5 -70.5t-70.5 -29.5t-70 30q-10 9 -17 20h-763v-500h513z" />
    <glyph glyph-name="F" unicode="F" 
d="M613 700q7 11 17 21q29 29 70 29t70.5 -29.5t29.5 -70.5t-29.5 -70.5t-70.5 -29.5t-70 30q-10 9 -17 20h-513v-663q11 -7 21 -16q29 -30 29 -71t-29.5 -70.5t-70.5 -29.5t-70.5 29.5t-29.5 70.5t30 71q9 9 20 16v1363h863q7 11 17 21q29 29 70 29t70.5 -29.5t29.5 -70.5
t-29.5 -70.5t-70.5 -29.5t-70 30q-10 9 -17 20h-763v-500h513z" />
    <glyph glyph-name="G" unicode="G" 
d="M663 1300q7 11 17 21q29 29 70 29t70.5 -29.5t29.5 -70.5t-29.5 -70.5t-70.5 -29.5t-70 30q-10 9 -17 20h-563v-1100h800v500h-263q-7 -11 -16 -20q-30 -30 -71 -30t-70.5 29.5t-29.5 70.5t29.5 70.5t70.5 29.5t71 -29q9 -10 16 -21h363v-700h-1000v1300h663z" />
    <glyph glyph-name="H" unicode="H" 
d="M0 963q-11 7 -20 17q-30 29 -30 70t29.5 70.5t70.5 29.5t70.5 -29.5t29.5 -70.5t-29 -70q-10 -10 -21 -17v-263h800v463q-11 7 -20 17q-30 29 -30 70t29.5 70.5t70.5 29.5t70.5 -29.5t29.5 -70.5t-29 -70q-10 -10 -21 -17v-1026q11 -7 21 -16q29 -30 29 -71t-29.5 -70.5
t-70.5 -29.5t-70.5 29.5t-29.5 70.5t30 71q9 9 20 16v463h-800v-463q11 -7 21 -16q29 -30 29 -71t-29.5 -70.5t-70.5 -29.5t-70.5 29.5t-29.5 70.5t30 71q9 9 20 16v826z" />
    <glyph glyph-name="I" unicode="I" horiz-adv-x="200" 
d="M100 -63q11 -7 21 -16q29 -30 29 -71t-29.5 -70.5t-70.5 -29.5t-70.5 29.5t-29.5 70.5t30 71q9 9 20 16v1376q-11 7 -20 17q-30 29 -30 70t29.5 70.5t70.5 29.5t70.5 -29.5t29.5 -70.5t-29 -70q-10 -10 -21 -17v-1376z" />
    <glyph glyph-name="J" unicode="J" 
d="M900 1163q-11 7 -20 17q-30 29 -30 70t29.5 70.5t70.5 29.5t70.5 -29.5t29.5 -70.5t-29 -70q-10 -10 -21 -17v-1163h-1000v263q-11 7 -20 17q-30 29 -30 70t29.5 70.5t70.5 29.5t70.5 -29.5t29.5 -70.5t-29 -70q-10 -10 -21 -17v-163h800v1063z" />
    <glyph glyph-name="K" unicode="K" 
d="M100 287q11 -7 21 -16q29 -30 29 -71t-29.5 -70.5t-70.5 -29.5t-70.5 29.5t-29.5 70.5t30 71q9 9 20 16v676q-11 7 -20 17q-30 29 -30 70t29.5 70.5t70.5 29.5t70.5 -29.5t29.5 -70.5t-29 -70q-10 -10 -21 -17v-263h450l350 350v113q-11 7 -20 17q-30 29 -30 70
t29.5 70.5t70.5 29.5t70.5 -29.5t29.5 -70.5t-29 -70q-10 -10 -21 -17v-163l-350 -351l350 -349v-363q11 -7 21 -16q29 -30 29 -71t-29.5 -70.5t-70.5 -29.5t-70.5 29.5t-29.5 70.5t30 71q9 9 20 16v313l-350 350h-450v-313z" />
    <glyph glyph-name="L" unicode="L" 
d="M0 1313q-11 7 -20 17q-30 29 -30 70t29.5 70.5t70.5 29.5t70.5 -29.5t29.5 -70.5t-29 -70q-10 -10 -21 -17v-1213h800v163q-11 7 -20 17q-30 29 -30 70t29.5 70.5t70.5 29.5t70.5 -29.5t29.5 -70.5t-29 -70q-10 -10 -21 -17v-263h-1000v1313z" />
    <glyph glyph-name="M" unicode="M" horiz-adv-x="2000" 
d="M1000 -63q11 -7 21 -16q29 -30 29 -71t-29.5 -70.5t-70.5 -29.5t-70.5 29.5t-29.5 70.5t30 71q9 9 20 16v909l-400 404l-400 -404v-709q11 -7 21 -16q29 -30 29 -71t-29.5 -70.5t-70.5 -29.5t-70.5 29.5t-29.5 70.5t30 71q9 9 20 16v763l500 500l450 -450l450 450l12 -12
l381 -381l107 -107v-563q11 -7 21 -16q29 -30 29 -71t-29.5 -70.5t-70.5 -29.5t-70.5 29.5t-29.5 70.5t30 71q9 9 20 16v509l-7 7l-384 388l-9 9l-400 -404v-909z" />
    <glyph glyph-name="N" unicode="N" 
d="M100 337q11 -7 21 -16q29 -30 29 -71t-29.5 -70.5t-70.5 -29.5t-70.5 29.5t-29.5 70.5t30 71q9 9 20 16v863l100 -100l450 -450l350 -347v710q-11 7 -20 17q-30 29 -30 70t29.5 70.5t70.5 29.5t70.5 -29.5t29.5 -70.5t-29 -70q-10 -10 -21 -17v-963l-66 66v-1l-384 388
v-3l-450 453v-616z" />
    <glyph glyph-name="O" unicode="O" 
d="M0 963q-11 7 -20 17q-30 29 -30 70t29.5 70.5t70.5 29.5t70.5 -29.5t29.5 -70.5t-29 -70q-10 -10 -21 -17v-863h800v1100h-513q-7 -11 -16 -20q-30 -30 -71 -30t-70.5 29.5t-29.5 70.5t29.5 70.5t70.5 29.5t71 -29q9 -10 16 -21h613v-1300h-1000v963z" />
    <glyph glyph-name="P" unicode="P" 
d="M100 137q11 -7 21 -16q29 -30 29 -71t-29.5 -70.5t-70.5 -29.5t-70.5 29.5t-29.5 70.5t30 71q9 9 20 16v1163h1000v-700h-613q-7 -11 -16 -20q-30 -30 -71 -30t-70.5 29.5t-29.5 70.5t29.5 70.5t70.5 29.5t71 -29q9 -10 16 -21h513v500h-800v-1063z" />
    <glyph glyph-name="Q" unicode="Q" 
d="M0 963q-11 7 -20 17q-30 29 -30 70t29.5 70.5t70.5 29.5t70.5 -29.5t29.5 -70.5t-29 -70q-10 -10 -21 -17v-863h800v1100h-513q-7 -11 -16 -20q-30 -30 -71 -30t-70.5 29.5t-29.5 70.5t29.5 70.5t70.5 29.5t71 -29q9 -10 16 -21h613v-1363q11 -7 21 -16q29 -30 29 -71
t-29.5 -70.5t-70.5 -29.5t-70.5 29.5t-29.5 70.5t30 71q9 9 20 16v63h-900v963z" />
    <glyph glyph-name="R" unicode="R" 
d="M100 137q11 -7 21 -16q29 -30 29 -71t-29.5 -70.5t-70.5 -29.5t-70.5 29.5t-29.5 70.5t30 71q9 9 20 16v1163h1000v-300l-350 -351l350 -349v-363q11 -7 21 -16q29 -30 29 -71t-29.5 -70.5t-70.5 -29.5t-70.5 29.5t-29.5 70.5t30 71q9 9 20 16v313l-400 400l400 400v150
h-800v-1063z" />
    <glyph glyph-name="S" unicode="S" 
d="M387 0q-7 -11 -16 -20q-30 -30 -71 -30t-70.5 29.5t-29.5 70.5t29.5 70.5t70.5 29.5t71 -29q9 -10 16 -21h513v500h-900v700h1000v-313q11 -7 21 -16q29 -30 29 -71t-29.5 -70.5t-70.5 -29.5t-70.5 29.5t-29.5 70.5t30 71q9 9 20 16v213h-800v-500h900v-700h-613z" />
    <glyph glyph-name="T" unicode="T" 
d="M550 -63q11 -7 21 -16q29 -30 29 -71t-29.5 -70.5t-70.5 -29.5t-70.5 29.5t-29.5 70.5t30 71q9 9 20 16v1263h-313q-7 -11 -16 -20q-30 -30 -71 -30t-70.5 29.5t-29.5 70.5t29.5 70.5t70.5 29.5t71 -29q9 -10 16 -21h726q7 11 17 21q29 29 70 29t70.5 -29.5t29.5 -70.5
t-29.5 -70.5t-70.5 -29.5t-70 30q-10 9 -17 20h-313v-1263z" />
    <glyph glyph-name="U" unicode="U" 
d="M0 1313q-11 7 -20 17q-30 29 -30 70t29.5 70.5t70.5 29.5t70.5 -29.5t29.5 -70.5t-29 -70q-10 -10 -21 -17v-1213h800v913q-11 7 -20 17q-30 29 -30 70t29.5 70.5t70.5 29.5t70.5 -29.5t29.5 -70.5t-29 -70q-10 -10 -21 -17v-1013h-1000v1313z" />
    <glyph glyph-name="V" unicode="V" 
d="M0 1163q-11 7 -20 17q-30 29 -30 70t29.5 70.5t70.5 29.5t70.5 -29.5t29.5 -70.5t-29 -70q-10 -10 -21 -17v-609l400 -404l400 404v609q-11 7 -20 17q-30 29 -30 70t29.5 70.5t70.5 29.5t70.5 -29.5t29.5 -70.5t-29 -70q-10 -10 -21 -17v-663l-500 -500l-500 500v663z
" />
    <glyph glyph-name="W" unicode="W" horiz-adv-x="2000" 
d="M0 1363q-11 7 -20 17q-30 29 -30 70t29.5 70.5t70.5 29.5t70.5 -29.5t29.5 -70.5t-29 -70q-10 -10 -21 -17v-809l400 -404l400 404v609q-11 7 -20 17q-30 29 -30 70t29.5 70.5t70.5 29.5t70.5 -29.5t29.5 -70.5t-29 -70q-10 -10 -21 -17v-609l400 -404l400 404v809
q-11 7 -20 17q-30 29 -30 70t29.5 70.5t70.5 29.5t70.5 -29.5t29.5 -70.5t-29 -70q-10 -10 -21 -17v-863l-500 -500l-450 450l-450 -450l-500 500v863z" />
    <glyph glyph-name="X" unicode="X" 
d="M100 137q11 -7 21 -16q29 -30 29 -71t-29.5 -70.5t-70.5 -29.5t-70.5 29.5t-29.5 70.5t30 71q9 9 20 16v363l150 150l-150 150v363q-11 7 -20 17q-30 29 -30 70t29.5 70.5t70.5 29.5t70.5 -29.5t29.5 -70.5t-29 -70q-10 -10 -21 -17v-313l150 -150h500l150 150v313
q-11 7 -20 17q-30 29 -30 70t29.5 70.5t70.5 29.5t70.5 -29.5t29.5 -70.5t-29 -70q-10 -10 -21 -17v-363l-150 -150l150 -150v-363q11 -7 21 -16q29 -30 29 -71t-29.5 -70.5t-70.5 -29.5t-70.5 29.5t-29.5 70.5t30 71q9 9 20 16v313l-150 150h-500l-150 -150v-313z" />
    <glyph glyph-name="Y" unicode="Y" 
d="M0 963q-11 7 -20 17q-30 29 -30 70t29.5 70.5t70.5 29.5t70.5 -29.5t29.5 -70.5t-29 -70q-10 -10 -21 -17v-59l400 -404l400 404v259q-11 7 -20 17q-30 29 -30 70t29.5 70.5t70.5 29.5t70.5 -29.5t29.5 -70.5t-29 -70q-10 -10 -21 -17v-313l-450 -450v-463q11 -7 21 -16
q29 -30 29 -71t-29.5 -70.5t-70.5 -29.5t-70.5 29.5t-29.5 70.5t30 71q9 9 20 16v463l-450 450v113z" />
    <glyph glyph-name="Z" unicode="Z" 
d="M100 1037q11 -7 21 -16q29 -30 29 -71t-29.5 -70.5t-70.5 -29.5t-70.5 29.5t-29.5 70.5t30 71q9 9 20 16v263h1000v-226l-900 -900v-74h800v163q-11 7 -20 17q-30 29 -30 70t29.5 70.5t70.5 29.5t70.5 -29.5t29.5 -70.5t-29 -70q-10 -10 -21 -17v-263h-1000v224l900 900
v76h-800v-163z" />
    <glyph glyph-name="bracketleft" unicode="[" horiz-adv-x="1400" 
d="M187 450q-7 -11 -16 -20q-30 -30 -71 -30t-70.5 29.5t-29.5 70.5t29.5 70.5t70.5 29.5t71 -29q9 -10 16 -21h313l350 300h313q7 11 17 21q29 29 70 29t70.5 -29.5t29.5 -70.5t-29.5 -70.5t-70.5 -29.5t-70 30q-10 9 -17 20h-263l-350 -300h-363zM187 200q-7 -11 -16 -20
q-30 -30 -71 -30t-70.5 29.5t-29.5 70.5t29.5 70.5t70.5 29.5t71 -29q9 -10 16 -21h313l350 300h313q7 11 17 21q29 29 70 29t70.5 -29.5t29.5 -70.5t-29.5 -70.5t-70.5 -29.5t-70 30q-10 9 -17 20h-263l-350 -300h-363zM187 700q-7 -11 -16 -20q-30 -30 -71 -30t-70.5 29.5
t-29.5 70.5t29.5 70.5t70.5 29.5t71 -29q9 -10 16 -21h313l350 300h313q7 11 17 21q29 29 70 29t70.5 -29.5t29.5 -70.5t-29.5 -70.5t-70.5 -29.5t-70 30q-10 9 -17 20h-263l-350 -300h-363z" />
    <glyph glyph-name="backslash" unicode="\" horiz-adv-x="1200" 
d="M1027 97q11 3 23 3q41 0 70.5 -29.5t29.5 -70.5t-29.5 -70.5t-70.5 -29.5t-70.5 29.5t-29.5 70.5q0 14 4 27l-881 1176q-11 -3 -23 -3q-41 0 -70.5 29.5t-29.5 70.5t29.5 70.5t70.5 29.5t70.5 -29.5t29.5 -70.5q0 -14 -4 -27z" />
    <glyph glyph-name="bracketright" unicode="]" horiz-adv-x="1400" 
d="M800 450l-350 300h-263q-7 -11 -17 -20q-29 -30 -70 -30t-70.5 29.5t-29.5 70.5t29.5 70.5t70.5 29.5t70 -29q10 -10 17 -21h313l350 -300h313q7 11 16 21q30 29 71 29t70.5 -29.5t29.5 -70.5t-29.5 -70.5t-70.5 -29.5t-71 30q-9 9 -16 20h-363zM800 200l-350 300h-263
q-7 -11 -17 -20q-29 -30 -70 -30t-70.5 29.5t-29.5 70.5t29.5 70.5t70.5 29.5t70 -29q10 -10 17 -21h313l350 -300h313q7 11 16 21q30 29 71 29t70.5 -29.5t29.5 -70.5t-29.5 -70.5t-70.5 -29.5t-71 30q-9 9 -16 20h-363zM800 700l-350 300h-263q-7 -11 -17 -20
q-29 -30 -70 -30t-70.5 29.5t-29.5 70.5t29.5 70.5t70.5 29.5t70 -29q10 -10 17 -21h313l350 -300h313q7 11 16 21q30 29 71 29t70.5 -29.5t29.5 -70.5t-29.5 -70.5t-70.5 -29.5t-71 30q-9 9 -16 20h-363z" />
    <glyph glyph-name="asciicircum" unicode="^" horiz-adv-x="500" 
d="M400 950l-200 200l-200 -200v150l200 200l200 -200v-150z" />
    <glyph glyph-name="underscore" unicode="_" 
d="M137 -300q-7 -11 -16 -20q-30 -30 -71 -30t-70.5 29.5t-29.5 70.5t29.5 70.5t70.5 29.5t71 -29q9 -10 16 -21h726q7 11 17 21q29 29 70 29t70.5 -29.5t29.5 -70.5t-29.5 -70.5t-70.5 -29.5t-70 30q-10 9 -17 20h-726z" />
    <glyph glyph-name="grave" unicode="`" horiz-adv-x="200" 
d="M100 900h-100v600h100v-600z" />
    <glyph glyph-name="a" unicode="a" 
d="M100 137q11 -7 21 -16q29 -30 29 -71t-29.5 -70.5t-70.5 -29.5t-70.5 29.5t-29.5 70.5t30 71q9 9 20 16v763l500 500l500 -500v-963q11 -7 21 -16q29 -30 29 -71t-29.5 -70.5t-70.5 -29.5t-70.5 29.5t-29.5 70.5t30 71q9 9 20 16v909l-400 404l-400 -404v-709z" />
    <glyph glyph-name="b" unicode="b" 
d="M100 137q11 -7 21 -16q29 -30 29 -71t-29.5 -70.5t-70.5 -29.5t-70.5 29.5t-29.5 70.5t30 71q9 9 20 16v1163h1000v-300l-350 -350l350 -350v-300h-613q-7 -11 -16 -20q-30 -30 -71 -30t-70.5 29.5t-29.5 70.5t29.5 70.5t70.5 29.5t71 -29q9 -10 16 -21h513v150l-400 400
l400 400v150h-800v-1063z" />
    <glyph glyph-name="c" unicode="c" 
d="M1000 887q11 -7 21 -16q29 -30 29 -71t-29.5 -70.5t-70.5 -29.5t-70.5 29.5t-29.5 70.5t30 71q9 9 20 16v313h-800v-1100h763q7 11 17 21q29 29 70 29t70.5 -29.5t29.5 -70.5t-29.5 -70.5t-70.5 -29.5t-70 30q-10 9 -17 20h-863v1300h1000v-413z" />
    <glyph glyph-name="d" unicode="d" 
d="M0 1313q-11 7 -20 17q-30 29 -30 70t29.5 70.5t70.5 29.5t70.5 -29.5t29.5 -70.5t-29 -70q-10 -10 -21 -17v-1213h800v750l-350 350h-163q-7 -11 -16 -20q-30 -30 -71 -30t-70.5 29.5t-29.5 70.5t29.5 70.5t70.5 29.5t71 -29q9 -10 16 -21h213l400 -400v-900h-1000v1313z
" />
    <glyph glyph-name="e" unicode="e" 
d="M613 700q7 11 17 21q29 29 70 29t70.5 -29.5t29.5 -70.5t-29.5 -70.5t-70.5 -29.5t-70 30q-10 9 -17 20h-513v-500h713q7 11 17 21q29 29 70 29t70.5 -29.5t29.5 -70.5t-29.5 -70.5t-70.5 -29.5t-70 30q-10 9 -17 20h-813v1300h863q7 11 17 21q29 29 70 29t70.5 -29.5
t29.5 -70.5t-29.5 -70.5t-70.5 -29.5t-70 30q-10 9 -17 20h-763v-500h513z" />
    <glyph glyph-name="f" unicode="f" 
d="M613 700q7 11 17 21q29 29 70 29t70.5 -29.5t29.5 -70.5t-29.5 -70.5t-70.5 -29.5t-70 30q-10 9 -17 20h-513v-663q11 -7 21 -16q29 -30 29 -71t-29.5 -70.5t-70.5 -29.5t-70.5 29.5t-29.5 70.5t30 71q9 9 20 16v1363h863q7 11 17 21q29 29 70 29t70.5 -29.5t29.5 -70.5
t-29.5 -70.5t-70.5 -29.5t-70 30q-10 9 -17 20h-763v-500h513z" />
    <glyph glyph-name="g" unicode="g" 
d="M663 1300q7 11 17 21q29 29 70 29t70.5 -29.5t29.5 -70.5t-29.5 -70.5t-70.5 -29.5t-70 30q-10 9 -17 20h-563v-1100h800v500h-263q-7 -11 -16 -20q-30 -30 -71 -30t-70.5 29.5t-29.5 70.5t29.5 70.5t70.5 29.5t71 -29q9 -10 16 -21h363v-700h-1000v1300h663z" />
    <glyph glyph-name="h" unicode="h" 
d="M0 963q-11 7 -20 17q-30 29 -30 70t29.5 70.5t70.5 29.5t70.5 -29.5t29.5 -70.5t-29 -70q-10 -10 -21 -17v-263h800v463q-11 7 -20 17q-30 29 -30 70t29.5 70.5t70.5 29.5t70.5 -29.5t29.5 -70.5t-29 -70q-10 -10 -21 -17v-1026q11 -7 21 -16q29 -30 29 -71t-29.5 -70.5
t-70.5 -29.5t-70.5 29.5t-29.5 70.5t30 71q9 9 20 16v463h-800v-463q11 -7 21 -16q29 -30 29 -71t-29.5 -70.5t-70.5 -29.5t-70.5 29.5t-29.5 70.5t30 71q9 9 20 16v826z" />
    <glyph glyph-name="i" unicode="i" horiz-adv-x="200" 
d="M100 -63q11 -7 21 -16q29 -30 29 -71t-29.5 -70.5t-70.5 -29.5t-70.5 29.5t-29.5 70.5t30 71q9 9 20 16v1376q-11 7 -20 17q-30 29 -30 70t29.5 70.5t70.5 29.5t70.5 -29.5t29.5 -70.5t-29 -70q-10 -10 -21 -17v-1376z" />
    <glyph glyph-name="j" unicode="j" 
d="M900 1163q-11 7 -20 17q-30 29 -30 70t29.5 70.5t70.5 29.5t70.5 -29.5t29.5 -70.5t-29 -70q-10 -10 -21 -17v-1163h-1000v263q-11 7 -20 17q-30 29 -30 70t29.5 70.5t70.5 29.5t70.5 -29.5t29.5 -70.5t-29 -70q-10 -10 -21 -17v-163h800v1063z" />
    <glyph glyph-name="k" unicode="k" 
d="M100 287q11 -7 21 -16q29 -30 29 -71t-29.5 -70.5t-70.5 -29.5t-70.5 29.5t-29.5 70.5t30 71q9 9 20 16v676q-11 7 -20 17q-30 29 -30 70t29.5 70.5t70.5 29.5t70.5 -29.5t29.5 -70.5t-29 -70q-10 -10 -21 -17v-263h450l350 350v113q-11 7 -20 17q-30 29 -30 70
t29.5 70.5t70.5 29.5t70.5 -29.5t29.5 -70.5t-29 -70q-10 -10 -21 -17v-163l-350 -351l350 -349v-363q11 -7 21 -16q29 -30 29 -71t-29.5 -70.5t-70.5 -29.5t-70.5 29.5t-29.5 70.5t30 71q9 9 20 16v313l-350 350h-450v-313z" />
    <glyph glyph-name="l" unicode="l" 
d="M0 1313q-11 7 -20 17q-30 29 -30 70t29.5 70.5t70.5 29.5t70.5 -29.5t29.5 -70.5t-29 -70q-10 -10 -21 -17v-1213h800v163q-11 7 -20 17q-30 29 -30 70t29.5 70.5t70.5 29.5t70.5 -29.5t29.5 -70.5t-29 -70q-10 -10 -21 -17v-263h-1000v1313z" />
    <glyph glyph-name="m" unicode="m" horiz-adv-x="2000" 
d="M1000 -63q11 -7 21 -16q29 -30 29 -71t-29.5 -70.5t-70.5 -29.5t-70.5 29.5t-29.5 70.5t30 71q9 9 20 16v909l-400 404l-400 -404v-709q11 -7 21 -16q29 -30 29 -71t-29.5 -70.5t-70.5 -29.5t-70.5 29.5t-29.5 70.5t30 71q9 9 20 16v763l500 500l450 -450l450 450l12 -12
l381 -381l107 -107v-563q11 -7 21 -16q29 -30 29 -71t-29.5 -70.5t-70.5 -29.5t-70.5 29.5t-29.5 70.5t30 71q9 9 20 16v509l-7 7l-384 388l-9 9l-400 -404v-909z" />
    <glyph glyph-name="n" unicode="n" 
d="M100 337q11 -7 21 -16q29 -30 29 -71t-29.5 -70.5t-70.5 -29.5t-70.5 29.5t-29.5 70.5t30 71q9 9 20 16v863l100 -100l450 -450l350 -347v710q-11 7 -20 17q-30 29 -30 70t29.5 70.5t70.5 29.5t70.5 -29.5t29.5 -70.5t-29 -70q-10 -10 -21 -17v-963l-66 66v-1l-384 388
v-3l-450 453v-616z" />
    <glyph glyph-name="o" unicode="o" 
d="M0 963q-11 7 -20 17q-30 29 -30 70t29.5 70.5t70.5 29.5t70.5 -29.5t29.5 -70.5t-29 -70q-10 -10 -21 -17v-863h800v1100h-513q-7 -11 -16 -20q-30 -30 -71 -30t-70.5 29.5t-29.5 70.5t29.5 70.5t70.5 29.5t71 -29q9 -10 16 -21h613v-1300h-1000v963z" />
    <glyph glyph-name="p" unicode="p" 
d="M100 137q11 -7 21 -16q29 -30 29 -71t-29.5 -70.5t-70.5 -29.5t-70.5 29.5t-29.5 70.5t30 71q9 9 20 16v1163h1000v-700h-613q-7 -11 -16 -20q-30 -30 -71 -30t-70.5 29.5t-29.5 70.5t29.5 70.5t70.5 29.5t71 -29q9 -10 16 -21h513v500h-800v-1063z" />
    <glyph glyph-name="q" unicode="q" 
d="M0 963q-11 7 -20 17q-30 29 -30 70t29.5 70.5t70.5 29.5t70.5 -29.5t29.5 -70.5t-29 -70q-10 -10 -21 -17v-863h800v1100h-513q-7 -11 -16 -20q-30 -30 -71 -30t-70.5 29.5t-29.5 70.5t29.5 70.5t70.5 29.5t71 -29q9 -10 16 -21h613v-1363q11 -7 21 -16q29 -30 29 -71
t-29.5 -70.5t-70.5 -29.5t-70.5 29.5t-29.5 70.5t30 71q9 9 20 16v63h-900v963z" />
    <glyph glyph-name="r" unicode="r" 
d="M100 137q11 -7 21 -16q29 -30 29 -71t-29.5 -70.5t-70.5 -29.5t-70.5 29.5t-29.5 70.5t30 71q9 9 20 16v1163h1000v-300l-350 -351l350 -349v-363q11 -7 21 -16q29 -30 29 -71t-29.5 -70.5t-70.5 -29.5t-70.5 29.5t-29.5 70.5t30 71q9 9 20 16v313l-400 400l400 400v150
h-800v-1063z" />
    <glyph glyph-name="s" unicode="s" 
d="M387 0q-7 -11 -16 -20q-30 -30 -71 -30t-70.5 29.5t-29.5 70.5t29.5 70.5t70.5 29.5t71 -29q9 -10 16 -21h513v500h-900v700h1000v-313q11 -7 21 -16q29 -30 29 -71t-29.5 -70.5t-70.5 -29.5t-70.5 29.5t-29.5 70.5t30 71q9 9 20 16v213h-800v-500h900v-700h-613z" />
    <glyph glyph-name="t" unicode="t" 
d="M550 -63q11 -7 21 -16q29 -30 29 -71t-29.5 -70.5t-70.5 -29.5t-70.5 29.5t-29.5 70.5t30 71q9 9 20 16v1263h-313q-7 -11 -16 -20q-30 -30 -71 -30t-70.5 29.5t-29.5 70.5t29.5 70.5t70.5 29.5t71 -29q9 -10 16 -21h726q7 11 17 21q29 29 70 29t70.5 -29.5t29.5 -70.5
t-29.5 -70.5t-70.5 -29.5t-70 30q-10 9 -17 20h-313v-1263z" />
    <glyph glyph-name="u" unicode="u" 
d="M0 1313q-11 7 -20 17q-30 29 -30 70t29.5 70.5t70.5 29.5t70.5 -29.5t29.5 -70.5t-29 -70q-10 -10 -21 -17v-1213h800v913q-11 7 -20 17q-30 29 -30 70t29.5 70.5t70.5 29.5t70.5 -29.5t29.5 -70.5t-29 -70q-10 -10 -21 -17v-1013h-1000v1313z" />
    <glyph glyph-name="v" unicode="v" 
d="M0 1163q-11 7 -20 17q-30 29 -30 70t29.5 70.5t70.5 29.5t70.5 -29.5t29.5 -70.5t-29 -70q-10 -10 -21 -17v-609l400 -404l400 404v609q-11 7 -20 17q-30 29 -30 70t29.5 70.5t70.5 29.5t70.5 -29.5t29.5 -70.5t-29 -70q-10 -10 -21 -17v-663l-500 -500l-500 500v663z
" />
    <glyph glyph-name="w" unicode="w" horiz-adv-x="2000" 
d="M0 1363q-11 7 -20 17q-30 29 -30 70t29.5 70.5t70.5 29.5t70.5 -29.5t29.5 -70.5t-29 -70q-10 -10 -21 -17v-809l400 -404l400 404v609q-11 7 -20 17q-30 29 -30 70t29.5 70.5t70.5 29.5t70.5 -29.5t29.5 -70.5t-29 -70q-10 -10 -21 -17v-609l400 -404l400 404v809
q-11 7 -20 17q-30 29 -30 70t29.5 70.5t70.5 29.5t70.5 -29.5t29.5 -70.5t-29 -70q-10 -10 -21 -17v-863l-500 -500l-450 450l-450 -450l-500 500v863z" />
    <glyph glyph-name="x" unicode="x" 
d="M100 137q11 -7 21 -16q29 -30 29 -71t-29.5 -70.5t-70.5 -29.5t-70.5 29.5t-29.5 70.5t30 71q9 9 20 16v363l150 150l-150 150v363q-11 7 -20 17q-30 29 -30 70t29.5 70.5t70.5 29.5t70.5 -29.5t29.5 -70.5t-29 -70q-10 -10 -21 -17v-313l150 -150h500l150 150v313
q-11 7 -20 17q-30 29 -30 70t29.5 70.5t70.5 29.5t70.5 -29.5t29.5 -70.5t-29 -70q-10 -10 -21 -17v-363l-150 -150l150 -150v-363q11 -7 21 -16q29 -30 29 -71t-29.5 -70.5t-70.5 -29.5t-70.5 29.5t-29.5 70.5t30 71q9 9 20 16v313l-150 150h-500l-150 -150v-313z" />
    <glyph glyph-name="y" unicode="y" 
d="M0 963q-11 7 -20 17q-30 29 -30 70t29.5 70.5t70.5 29.5t70.5 -29.5t29.5 -70.5t-29 -70q-10 -10 -21 -17v-59l400 -404l400 404v259q-11 7 -20 17q-30 29 -30 70t29.5 70.5t70.5 29.5t70.5 -29.5t29.5 -70.5t-29 -70q-10 -10 -21 -17v-313l-450 -450v-463q11 -7 21 -16
q29 -30 29 -71t-29.5 -70.5t-70.5 -29.5t-70.5 29.5t-29.5 70.5t30 71q9 9 20 16v463l-450 450v113z" />
    <glyph glyph-name="z" unicode="z" 
d="M100 1037q11 -7 21 -16q29 -30 29 -71t-29.5 -70.5t-70.5 -29.5t-70.5 29.5t-29.5 70.5t30 71q9 9 20 16v263h1000v-226l-900 -900v-74h800v163q-11 7 -20 17q-30 29 -30 70t29.5 70.5t70.5 29.5t70.5 -29.5t29.5 -70.5t-29 -70q-10 -10 -21 -17v-263h-1000v224l900 900
v76h-800v-163z" />
    <glyph glyph-name="braceleft" unicode="{" horiz-adv-x="700" 
d="M463 0q7 11 17 21q29 29 70 29t70.5 -29.5t29.5 -70.5t-29.5 -70.5t-70.5 -29.5t-70 30q-10 9 -17 20h-363v800h-100v100h100v800h363q7 11 17 21q29 29 70 29t70.5 -29.5t29.5 -70.5t-29.5 -70.5t-70.5 -29.5t-70 30q-10 9 -17 20h-263v-1500h263z" />
    <glyph glyph-name="bar" unicode="|" horiz-adv-x="250" 
d="M150 137q11 -7 21 -16q29 -30 29 -71t-29.5 -70.5t-70.5 -29.5t-70.5 29.5t-29.5 70.5t30 71q9 9 20 16v1126q-11 7 -20 17q-30 29 -30 70t29.5 70.5t70.5 29.5t70.5 -29.5t29.5 -70.5t-29 -70q-10 -10 -21 -17v-1126z" />
    <glyph glyph-name="braceright" unicode="}" horiz-adv-x="700" 
d="M137 -100q-7 -11 -16 -20q-30 -30 -71 -30t-70.5 29.5t-29.5 70.5t29.5 70.5t70.5 29.5t71 -29q9 -10 16 -21h263v1500h-263q-7 -11 -16 -20q-30 -30 -71 -30t-70.5 29.5t-29.5 70.5t29.5 70.5t70.5 29.5t71 -29q9 -10 16 -21h363v-800h100v-100h-100v-800h-363z" />
    <glyph glyph-name="asciitilde" unicode="~" horiz-adv-x="1400" 
d="M187 450q-7 -11 -16 -20q-30 -30 -71 -30t-70.5 29.5t-29.5 70.5t29.5 70.5t70.5 29.5t71 -29q9 -10 16 -21h313l350 300h313q7 11 17 21q29 29 70 29t70.5 -29.5t29.5 -70.5t-29.5 -70.5t-70.5 -29.5t-70 30q-10 9 -17 20h-263l-350 -300h-363z" />
    <glyph glyph-name="sterling" unicode="&#xa3;" horiz-adv-x="1300" 
d="M1063 100q7 11 17 21q29 29 70 29t70.5 -29.5t29.5 -70.5t-29.5 -70.5t-70.5 -29.5t-70 30q-10 9 -17 20h-863v600h-63q-7 -11 -16 -20q-30 -30 -71 -30t-70.5 29.5t-29.5 70.5t29.5 70.5t70.5 29.5t71 -29q9 -10 16 -21h63v600h1000v-263q11 -7 21 -16q29 -30 29 -71
t-29.5 -70.5t-70.5 -29.5t-70.5 29.5t-29.5 70.5t30 71q9 9 20 16v163h-800v-500h463q7 11 17 21q29 29 70 29t70.5 -29.5t29.5 -70.5t-29.5 -70.5t-70.5 -29.5t-70 30q-10 9 -17 20h-463v-500h763z" />
    <glyph glyph-name="yen" unicode="&#xa5;" 
d="M0 1163q-11 7 -20 17q-30 29 -30 70t29.5 70.5t70.5 29.5t70.5 -29.5t29.5 -70.5t-29 -70q-10 -10 -21 -17v-259l400 -404l400 404v259q-11 7 -20 17q-30 29 -30 70t29.5 70.5t70.5 29.5t70.5 -29.5t29.5 -70.5t-29 -70q-10 -10 -21 -17v-313l-450 -450v-100h163
q7 11 17 21q29 29 70 29t70.5 -29.5t29.5 -70.5t-29.5 -70.5t-70.5 -29.5t-70 30q-10 9 -17 20h-163v-63q11 -7 21 -16q29 -30 29 -71t-29.5 -70.5t-70.5 -29.5t-70.5 29.5t-29.5 70.5t30 71q9 9 20 16v63h-163q-7 -11 -16 -20q-30 -30 -71 -30t-70.5 29.5t-29.5 70.5
t29.5 70.5t70.5 29.5t71 -29q9 -10 16 -21h163v100l-450 450v313z" />
    <glyph glyph-name="Euro" unicode="&#x20ac;" horiz-adv-x="1300" 
d="M1200 1037q11 -7 21 -16q29 -30 29 -71t-29.5 -70.5t-70.5 -29.5t-70.5 29.5t-29.5 70.5t30 71q9 9 20 16v163h-800v-500h563q7 11 17 21q29 29 70 29t70.5 -29.5t29.5 -70.5t-29.5 -70.5t-70.5 -29.5t-70 30q-10 9 -17 20h-563v-500h800v163q-11 7 -20 17q-30 29 -30 70
t29.5 70.5t70.5 29.5t70.5 -29.5t29.5 -70.5t-29 -70q-10 -10 -21 -17v-263h-1000v600h-63q-7 -11 -16 -20q-30 -30 -71 -30t-70.5 29.5t-29.5 70.5t29.5 70.5t70.5 29.5t71 -29q9 -10 16 -21h63v600h1000v-263z" />
  </font>
</defs>
</svg>
